<svg width="30" height="30" viewBox="0 0 30 30" fill="none" xmlns="http://www.w3.org/2000/svg">
<path d="M21.5625 13.125C21.5625 13.3736 21.4637 13.6121 21.2879 13.7879C21.1121 13.9637 20.8736 14.0625 20.625 14.0625H13.125C12.8764 14.0625 12.6379 13.9637 12.4621 13.7879C12.2863 13.6121 12.1875 13.3736 12.1875 13.125C12.1875 12.8764 12.2863 12.6379 12.4621 12.4621C12.6379 12.2863 12.8764 12.1875 13.125 12.1875H20.625C20.8736 12.1875 21.1121 12.2863 21.2879 12.4621C21.4637 12.6379 21.5625 12.8764 21.5625 13.125ZM20.625 15.9375H13.125C12.8764 15.9375 12.6379 16.0363 12.4621 16.2121C12.2863 16.3879 12.1875 16.6264 12.1875 16.875C12.1875 17.1236 12.2863 17.3621 12.4621 17.5379C12.6379 17.7137 12.8764 17.8125 13.125 17.8125H20.625C20.8736 17.8125 21.1121 17.7137 21.2879 17.5379C21.4637 17.3621 21.5625 17.1236 21.5625 16.875C21.5625 16.6264 21.4637 16.3879 21.2879 16.2121C21.1121 16.0363 20.8736 15.9375 20.625 15.9375ZM26.25 5.625V24.375C26.25 24.8723 26.0525 25.3492 25.7008 25.7008C25.3492 26.0525 24.8723 26.25 24.375 26.25H5.625C5.12772 26.25 4.65081 26.0525 4.29917 25.7008C3.94754 25.3492 3.75 24.8723 3.75 24.375V5.625C3.75 5.12772 3.94754 4.65081 4.29917 4.29917C4.65081 3.94754 5.12772 3.75 5.625 3.75H24.375C24.8723 3.75 25.3492 3.94754 25.7008 4.29917C26.0525 4.65081 26.25 5.12772 26.25 5.625ZM5.625 24.375H8.4375V5.625H5.625V24.375ZM24.375 24.375V5.625H10.3125V24.375H24.375Z" fill="#FAFAFA"/>
</svg>
