<svg width="82" height="82" viewBox="0 0 82 82" fill="none" xmlns="http://www.w3.org/2000/svg">
<path d="M38.4375 12.8125V5.125C38.4375 4.44538 38.7075 3.7936 39.188 3.31304C39.6686 2.83248 40.3204 2.5625 41 2.5625C41.6796 2.5625 42.3314 2.83248 42.812 3.31304C43.2925 3.7936 43.5625 4.44538 43.5625 5.125V12.8125C43.5625 13.4921 43.2925 14.1439 42.812 14.6245C42.3314 15.105 41.6796 15.375 41 15.375C40.3204 15.375 39.6686 15.105 39.188 14.6245C38.7075 14.1439 38.4375 13.4921 38.4375 12.8125ZM41 20.5C36.9455 20.5 32.982 21.7023 29.6108 23.9549C26.2396 26.2074 23.6121 29.4091 22.0605 33.155C20.5089 36.9009 20.1029 41.0227 20.8939 44.9994C21.6849 48.976 23.6373 52.6287 26.5043 55.4957C29.3713 58.3627 33.024 60.3151 37.0006 61.1061C40.9773 61.8971 45.0991 61.4911 48.845 59.9395C52.5909 58.3879 55.7926 55.7604 58.0451 52.3892C60.2977 49.018 61.5 45.0545 61.5 41C61.4941 35.5649 59.3323 30.3541 55.4891 26.5109C51.6459 22.6677 46.4351 20.5059 41 20.5ZM18.687 22.313C19.1679 22.7938 19.82 23.0639 20.5 23.0639C21.18 23.0639 21.8321 22.7938 22.313 22.313C22.7938 21.8321 23.0639 21.18 23.0639 20.5C23.0639 19.82 22.7938 19.1679 22.313 18.687L17.188 13.562C16.7071 13.0812 16.055 12.8111 15.375 12.8111C14.695 12.8111 14.0429 13.0812 13.562 13.562C13.0812 14.0429 12.8111 14.695 12.8111 15.375C12.8111 16.055 13.0812 16.7071 13.562 17.188L18.687 22.313ZM18.687 59.687L13.562 64.812C13.0812 65.2929 12.8111 65.945 12.8111 66.625C12.8111 67.305 13.0812 67.9571 13.562 68.438C14.0429 68.9188 14.695 69.1889 15.375 69.1889C16.055 69.1889 16.7071 68.9188 17.188 68.438L22.313 63.313C22.5511 63.0749 22.7399 62.7922 22.8688 62.4812C22.9976 62.1701 23.0639 61.8367 23.0639 61.5C23.0639 61.1633 22.9976 60.8299 22.8688 60.5188C22.7399 60.2078 22.5511 59.9251 22.313 59.687C22.0749 59.4489 21.7922 59.2601 21.4812 59.1312C21.1701 59.0024 20.8367 58.9361 20.5 58.9361C20.1633 58.9361 19.8299 59.0024 19.5188 59.1312C19.2078 59.2601 18.9251 59.4489 18.687 59.687ZM61.5 23.0625C61.8366 23.0628 62.17 22.9967 62.4811 22.8681C62.7921 22.7395 63.0748 22.5509 63.313 22.313L68.438 17.188C68.9188 16.7071 69.1889 16.055 69.1889 15.375C69.1889 14.695 68.9188 14.0429 68.438 13.562C67.9571 13.0812 67.305 12.8111 66.625 12.8111C65.945 12.8111 65.2929 13.0812 64.812 13.562L59.687 18.687C59.3283 19.0454 59.0839 19.5022 58.9848 19.9995C58.8858 20.4969 58.9365 21.0124 59.1307 21.4809C59.3248 21.9494 59.6535 22.3497 60.0753 22.6313C60.4971 22.9128 60.9929 23.0629 61.5 23.0625ZM63.313 59.687C62.8321 59.2062 62.18 58.9361 61.5 58.9361C60.82 58.9361 60.1679 59.2062 59.687 59.687C59.2062 60.1679 58.9361 60.82 58.9361 61.5C58.9361 62.18 59.2062 62.8321 59.687 63.313L64.812 68.438C65.0501 68.6761 65.3328 68.8649 65.6438 68.9938C65.9549 69.1226 66.2883 69.1889 66.625 69.1889C66.9617 69.1889 67.2951 69.1226 67.6062 68.9938C67.9172 68.8649 68.1999 68.6761 68.438 68.438C68.6761 68.1999 68.8649 67.9172 68.9938 67.6062C69.1226 67.2951 69.1889 66.9617 69.1889 66.625C69.1889 66.2883 69.1226 65.9549 68.9938 65.6438C68.8649 65.3328 68.6761 65.0501 68.438 64.812L63.313 59.687ZM15.375 41C15.375 40.3204 15.105 39.6686 14.6245 39.188C14.1439 38.7075 13.4921 38.4375 12.8125 38.4375H5.125C4.44538 38.4375 3.7936 38.7075 3.31304 39.188C2.83248 39.6686 2.5625 40.3204 2.5625 41C2.5625 41.6796 2.83248 42.3314 3.31304 42.812C3.7936 43.2925 4.44538 43.5625 5.125 43.5625H12.8125C13.4921 43.5625 14.1439 43.2925 14.6245 42.812C15.105 42.3314 15.375 41.6796 15.375 41ZM41 66.625C40.3204 66.625 39.6686 66.895 39.188 67.3755C38.7075 67.8561 38.4375 68.5079 38.4375 69.1875V76.875C38.4375 77.5546 38.7075 78.2064 39.188 78.687C39.6686 79.1675 40.3204 79.4375 41 79.4375C41.6796 79.4375 42.3314 79.1675 42.812 78.687C43.2925 78.2064 43.5625 77.5546 43.5625 76.875V69.1875C43.5625 68.5079 43.2925 67.8561 42.812 67.3755C42.3314 66.895 41.6796 66.625 41 66.625ZM76.875 38.4375H69.1875C68.5079 38.4375 67.8561 38.7075 67.3755 39.188C66.895 39.6686 66.625 40.3204 66.625 41C66.625 41.6796 66.895 42.3314 67.3755 42.812C67.8561 43.2925 68.5079 43.5625 69.1875 43.5625H76.875C77.5546 43.5625 78.2064 43.2925 78.687 42.812C79.1675 42.3314 79.4375 41.6796 79.4375 41C79.4375 40.3204 79.1675 39.6686 78.687 39.188C78.2064 38.7075 77.5546 38.4375 76.875 38.4375Z" fill="#F0A275"/>
</svg>
