<svg width="30" height="30" viewBox="0 0 30 30" fill="none" xmlns="http://www.w3.org/2000/svg">
<path d="M26.8266 5.82306C26.7143 5.73555 26.5835 5.67477 26.4442 5.64533C26.3049 5.61589 26.1608 5.61856 26.0227 5.65313L18.859 7.44376L11.6695 3.84845C11.4692 3.74853 11.2398 3.72359 11.0227 3.77813L3.52266 5.65313C3.31984 5.70383 3.13978 5.82086 3.01111 5.98563C2.88244 6.1504 2.81253 6.35345 2.8125 6.56251V23.4375C2.81252 23.58 2.84501 23.7205 2.90749 23.8486C2.96997 23.9766 3.0608 24.0887 3.17309 24.1763C3.28538 24.264 3.41617 24.3249 3.55553 24.3545C3.69488 24.384 3.83914 24.3814 3.97734 24.3469L11.141 22.5563L18.3305 26.1516C18.461 26.2159 18.6045 26.2496 18.75 26.25C18.8266 26.25 18.903 26.2405 18.9773 26.2219L26.4773 24.3469C26.6802 24.2962 26.8602 24.1792 26.9889 24.0144C27.1176 23.8496 27.1875 23.6466 27.1875 23.4375V6.56251C27.1875 6.41992 27.155 6.2792 27.0925 6.15107C27.0299 6.02293 26.939 5.91075 26.8266 5.82306ZM12.1875 6.20391L17.8125 9.01641V23.7961L12.1875 20.9836V6.20391ZM4.6875 7.29493L10.3125 5.88868V20.8301L4.6875 22.2363V7.29493ZM25.3125 22.7051L19.6875 24.1113V9.16993L25.3125 7.76368V22.7051Z" fill="#FFB9B9"/>
</svg>
