<svg width="30" height="30" viewBox="0 0 30 30" fill="none" xmlns="http://www.w3.org/2000/svg">
<path d="M26.8266 5.82304C26.7143 5.73554 26.5835 5.67476 26.4442 5.64532C26.3049 5.61587 26.1608 5.61854 26.0227 5.65312L18.859 7.44374L11.6695 3.84843C11.4692 3.74852 11.2398 3.72358 11.0227 3.77812L3.52266 5.65312C3.31984 5.70381 3.13978 5.82085 3.01111 5.98562C2.88244 6.15039 2.81253 6.35343 2.8125 6.56249V23.4375C2.81252 23.5799 2.84501 23.7205 2.90749 23.8485C2.96997 23.9766 3.0608 24.0887 3.17309 24.1763C3.28538 24.264 3.41617 24.3249 3.55553 24.3545C3.69488 24.384 3.83914 24.3814 3.97734 24.3469L11.141 22.5562L18.3305 26.1516C18.461 26.2159 18.6045 26.2496 18.75 26.25C18.8266 26.2499 18.903 26.2405 18.9773 26.2219L26.4773 24.3469C26.6802 24.2962 26.8602 24.1791 26.9889 24.0144C27.1176 23.8496 27.1875 23.6465 27.1875 23.4375V6.56249C27.1875 6.41991 27.155 6.27919 27.0925 6.15105C27.0299 6.02291 26.939 5.91073 26.8266 5.82304ZM12.1875 6.2039L17.8125 9.0164V23.7961L12.1875 20.9836V6.2039ZM4.6875 7.29491L10.3125 5.88866V20.8301L4.6875 22.2363V7.29491ZM25.3125 22.7051L19.6875 24.1113V9.16991L25.3125 7.76366V22.7051Z" fill="#FAFAFA"/>
</svg>
