<svg width="35" height="35" viewBox="0 0 35 35" fill="none" xmlns="http://www.w3.org/2000/svg">
<path d="M31.206 8.62285L30.5689 8.25508C30.6437 7.85936 30.6437 7.45314 30.5689 7.05742L31.206 6.68965C31.4573 6.54461 31.6407 6.30569 31.7158 6.02545C31.7909 5.7452 31.7517 5.4466 31.6066 5.19531C31.4616 4.94403 31.2227 4.76066 30.9424 4.68553C30.6622 4.61041 30.3636 4.64969 30.1123 4.79473L29.4738 5.16387C29.1683 4.90172 28.8169 4.69824 28.4375 4.56367V3.82813C28.4375 3.53804 28.3223 3.25984 28.1171 3.05473C27.912 2.84961 27.6338 2.73438 27.3437 2.73438C27.0537 2.73438 26.7755 2.84961 26.5703 3.05473C26.3652 3.25984 26.25 3.53804 26.25 3.82813V4.56367C25.8705 4.69824 25.5192 4.90172 25.2137 5.16387L24.5752 4.79473C24.4508 4.72291 24.3134 4.6763 24.171 4.65757C24.0285 4.63883 23.8838 4.64834 23.7451 4.68553C23.6063 4.72273 23.4762 4.7869 23.3623 4.87436C23.2483 4.96183 23.1527 5.07089 23.0809 5.19531C23.009 5.31974 22.9624 5.45708 22.9437 5.59952C22.925 5.74195 22.9345 5.88668 22.9717 6.02545C23.0089 6.16421 23.073 6.29428 23.1605 6.40825C23.248 6.52221 23.357 6.61783 23.4814 6.68965L24.1185 7.05742C24.0438 7.45314 24.0438 7.85936 24.1185 8.25508L23.4814 8.62285C23.2728 8.74318 23.1097 8.92902 23.0175 9.15151C22.9253 9.37401 22.9091 9.62072 22.9714 9.85337C23.0337 10.086 23.1711 10.2916 23.3622 10.4382C23.5533 10.5848 23.7875 10.6642 24.0283 10.6641C24.2203 10.6647 24.4091 10.6142 24.5752 10.5178L25.2137 10.1486C25.5192 10.4108 25.8705 10.6143 26.25 10.7488V11.4844C26.25 11.7745 26.3652 12.0527 26.5703 12.2578C26.7755 12.4629 27.0537 12.5781 27.3437 12.5781C27.6338 12.5781 27.912 12.4629 28.1171 12.2578C28.3223 12.0527 28.4375 11.7745 28.4375 11.4844V10.7488C28.8169 10.6143 29.1683 10.4108 29.4738 10.1486L30.1123 10.5178C30.2784 10.6142 30.4671 10.6647 30.6592 10.6641C30.9 10.6642 31.1342 10.5848 31.3253 10.4382C31.5164 10.2916 31.6538 10.086 31.7161 9.85337C31.7784 9.62072 31.7622 9.37401 31.67 9.15151C31.5778 8.92902 31.4147 8.74318 31.206 8.62285ZM26.25 7.65625C26.25 7.43993 26.3141 7.22846 26.4343 7.0486C26.5545 6.86873 26.7253 6.72854 26.9252 6.64576C27.125 6.56297 27.345 6.54131 27.5571 6.58352C27.7693 6.62572 27.9642 6.72989 28.1171 6.88285C28.2701 7.03582 28.3743 7.2307 28.4165 7.44287C28.4587 7.65504 28.437 7.87495 28.3542 8.07481C28.2714 8.27467 28.1313 8.44549 27.9514 8.56567C27.7715 8.68585 27.5601 8.75 27.3437 8.75C27.0537 8.75 26.7755 8.63477 26.5703 8.42965C26.3652 8.22453 26.25 7.94633 26.25 7.65625ZM30.2627 14.2338C29.9766 14.2817 29.7212 14.4412 29.5528 14.6774C29.3843 14.9135 29.3166 15.2069 29.3644 15.493C29.4755 16.1562 29.5313 16.8275 29.5312 17.5C29.5338 20.4452 28.4514 23.2881 26.4906 25.4857C25.2708 23.7181 23.5555 22.3505 21.5605 21.5551C22.6322 20.711 23.4141 19.554 23.7977 18.245C24.1813 16.9359 24.1474 15.5399 23.7007 14.2509C23.2541 12.962 22.4169 11.8443 21.3056 11.0533C20.1943 10.2622 18.8641 9.83716 17.5 9.83716C16.1359 9.83716 14.8057 10.2622 13.6944 11.0533C12.5831 11.8443 11.7459 12.962 11.2992 14.2509C10.8526 15.5399 10.8187 16.9359 11.2023 18.245C11.5858 19.554 12.3678 20.711 13.4394 21.5551C11.4445 22.3505 9.72921 23.7181 8.50937 25.4857C6.97089 23.7521 5.96595 21.611 5.61536 19.3198C5.26478 17.0286 5.58348 14.6849 6.53315 12.5706C7.48281 10.4562 9.02301 8.66115 10.9686 7.40128C12.9141 6.1414 15.1821 5.47033 17.5 5.46875C18.1725 5.46864 18.8438 5.52443 19.507 5.63555C19.7918 5.68048 20.0828 5.61115 20.3168 5.44262C20.5507 5.2741 20.7087 5.02001 20.7562 4.73564C20.8038 4.45127 20.7372 4.15961 20.5708 3.92412C20.4045 3.68862 20.1519 3.52833 19.868 3.47813C16.8977 2.97844 13.8454 3.43565 11.1519 4.78375C8.45841 6.13186 6.26303 8.30108 4.88274 10.9782C3.50246 13.6554 3.0087 16.7019 3.47275 19.678C3.9368 22.6541 5.33466 25.4057 7.46449 27.5355C9.59432 29.6653 12.3459 31.0632 15.322 31.5272C18.2981 31.9913 21.3446 31.4975 24.0218 30.1173C26.6989 28.737 28.8681 26.5416 30.2162 23.8481C31.5643 21.1546 32.0216 18.1023 31.5219 15.132C31.474 14.8459 31.3144 14.5906 31.0783 14.4221C30.8422 14.2537 30.5488 14.1859 30.2627 14.2338ZM13.125 16.4063C13.125 15.541 13.3816 14.6951 13.8623 13.9756C14.343 13.2562 15.0263 12.6954 15.8258 12.3643C16.6252 12.0331 17.5048 11.9465 18.3535 12.1153C19.2022 12.2841 19.9817 12.7008 20.5936 13.3127C21.2054 13.9245 21.6221 14.7041 21.7909 15.5527C21.9597 16.4014 21.8731 17.2811 21.542 18.0805C21.2108 18.8799 20.6501 19.5632 19.9306 20.0439C19.2111 20.5247 18.3653 20.7813 17.5 20.7813C16.3397 20.7813 15.2269 20.3203 14.4064 19.4998C13.5859 18.6794 13.125 17.5666 13.125 16.4063ZM10.1281 27.002C10.9194 25.7645 12.0094 24.7461 13.2977 24.0407C14.586 23.3353 16.0312 22.9656 17.5 22.9656C18.9688 22.9656 20.414 23.3353 21.7023 24.0407C22.9906 24.7461 24.0806 25.7645 24.8719 27.002C22.7641 28.6412 20.1701 29.5312 17.5 29.5312C14.8298 29.5312 12.2359 28.6412 10.1281 27.002Z" fill="#423A30"/>
</svg>
