<svg width="100" height="100" viewBox="0 0 100 100" fill="none" xmlns="http://www.w3.org/2000/svg">
<circle cx="50" cy="50" r="49.5" fill="#FFB9B9" stroke="#FAFAFA"/>
<path d="M57.8125 51.5625C57.8125 51.9769 57.6479 52.3743 57.3549 52.6674C57.0618 52.9604 56.6644 53.125 56.25 53.125H51.5625V57.8125C51.5625 58.2269 51.3979 58.6243 51.1049 58.9174C50.8118 59.2104 50.4144 59.375 50 59.375C49.5856 59.375 49.1882 59.2104 48.8951 58.9174C48.6021 58.6243 48.4375 58.2269 48.4375 57.8125V53.125H43.75C43.3356 53.125 42.9382 52.9604 42.6451 52.6674C42.3521 52.3743 42.1875 51.9769 42.1875 51.5625C42.1875 51.1481 42.3521 50.7507 42.6451 50.4576C42.9382 50.1646 43.3356 50 43.75 50H48.4375V45.3125C48.4375 44.8981 48.6021 44.5007 48.8951 44.2076C49.1882 43.9146 49.5856 43.75 50 43.75C50.4144 43.75 50.8118 43.9146 51.1049 44.2076C51.3979 44.5007 51.5625 44.8981 51.5625 45.3125V50H56.25C56.6644 50 57.0618 50.1646 57.3549 50.4576C57.6479 50.7507 57.8125 51.1481 57.8125 51.5625ZM70.3125 40.625V62.5C70.3125 63.7432 69.8186 64.9355 68.9396 65.8146C68.0605 66.6936 66.8682 67.1875 65.625 67.1875H34.375C33.1318 67.1875 31.9395 66.6936 31.0604 65.8146C30.1814 64.9355 29.6875 63.7432 29.6875 62.5V40.625C29.6875 39.3818 30.1814 38.1895 31.0604 37.3104C31.9395 36.4314 33.1318 35.9375 34.375 35.9375H39.7891L41.9922 32.6406C42.2771 32.2136 42.6627 31.8634 43.1151 31.6209C43.5675 31.3783 44.0726 31.251 44.5859 31.25H55.4141C55.9274 31.251 56.4325 31.3783 56.8849 31.6209C57.3373 31.8634 57.7229 32.2136 58.0078 32.6406L60.2109 35.9375H65.625C66.8682 35.9375 68.0605 36.4314 68.9396 37.3104C69.8186 38.1895 70.3125 39.3818 70.3125 40.625ZM67.1875 40.625C67.1875 40.2106 67.0229 39.8132 66.7299 39.5201C66.4368 39.2271 66.0394 39.0625 65.625 39.0625H59.375C59.1177 39.0627 58.8643 38.9993 58.6374 38.878C58.4105 38.7567 58.217 38.5812 58.0742 38.3672L55.4141 34.375H44.5859L41.9258 38.3672C41.783 38.5812 41.5895 38.7567 41.3626 38.878C41.1357 38.9993 40.8823 39.0627 40.625 39.0625H34.375C33.9606 39.0625 33.5632 39.2271 33.2701 39.5201C32.9771 39.8132 32.8125 40.2106 32.8125 40.625V62.5C32.8125 62.9144 32.9771 63.3118 33.2701 63.6049C33.5632 63.8979 33.9606 64.0625 34.375 64.0625H65.625C66.0394 64.0625 66.4368 63.8979 66.7299 63.6049C67.0229 63.3118 67.1875 62.9144 67.1875 62.5V40.625Z" fill="#FAFAFA"/>
</svg>
