<svg width="50" height="50" viewBox="0 0 50 50" fill="none" xmlns="http://www.w3.org/2000/svg">
<path d="M32.8125 26.5625C32.8125 26.9769 32.6479 27.3743 32.3549 27.6674C32.0618 27.9604 31.6644 28.125 31.25 28.125H26.5625V32.8125C26.5625 33.2269 26.3979 33.6243 26.1049 33.9174C25.8118 34.2104 25.4144 34.375 25 34.375C24.5856 34.375 24.1882 34.2104 23.8951 33.9174C23.6021 33.6243 23.4375 33.2269 23.4375 32.8125V28.125H18.75C18.3356 28.125 17.9382 27.9604 17.6451 27.6674C17.3521 27.3743 17.1875 26.9769 17.1875 26.5625C17.1875 26.1481 17.3521 25.7507 17.6451 25.4576C17.9382 25.1646 18.3356 25 18.75 25H23.4375V20.3125C23.4375 19.8981 23.6021 19.5007 23.8951 19.2076C24.1882 18.9146 24.5856 18.75 25 18.75C25.4144 18.75 25.8118 18.9146 26.1049 19.2076C26.3979 19.5007 26.5625 19.8981 26.5625 20.3125V25H31.25C31.6644 25 32.0618 25.1646 32.3549 25.4576C32.6479 25.7507 32.8125 26.1481 32.8125 26.5625ZM45.3125 15.625V37.5C45.3125 38.7432 44.8186 39.9355 43.9396 40.8146C43.0605 41.6936 41.8682 42.1875 40.625 42.1875H9.375C8.1318 42.1875 6.93951 41.6936 6.06044 40.8146C5.18136 39.9355 4.6875 38.7432 4.6875 37.5V15.625C4.6875 14.3818 5.18136 13.1895 6.06044 12.3104C6.93951 11.4314 8.1318 10.9375 9.375 10.9375H14.7891L16.9922 7.64062C17.2771 7.21364 17.6627 6.8634 18.1151 6.62086C18.5675 6.37832 19.0726 6.25095 19.5859 6.25H30.4141C30.9274 6.25095 31.4325 6.37832 31.8849 6.62086C32.3373 6.8634 32.7229 7.21364 33.0078 7.64062L35.2109 10.9375H40.625C41.8682 10.9375 43.0605 11.4314 43.9396 12.3104C44.8186 13.1895 45.3125 14.3818 45.3125 15.625ZM42.1875 15.625C42.1875 15.2106 42.0229 14.8132 41.7299 14.5201C41.4368 14.2271 41.0394 14.0625 40.625 14.0625H34.375C34.1177 14.0627 33.8643 13.9993 33.6374 13.878C33.4105 13.7567 33.217 13.5812 33.0742 13.3672L30.4141 9.375H19.5859L16.9258 13.3672C16.783 13.5812 16.5895 13.7567 16.3626 13.878C16.1357 13.9993 15.8823 14.0627 15.625 14.0625H9.375C8.9606 14.0625 8.56317 14.2271 8.27015 14.5201C7.97712 14.8132 7.8125 15.2106 7.8125 15.625V37.5C7.8125 37.9144 7.97712 38.3118 8.27015 38.6049C8.56317 38.8979 8.9606 39.0625 9.375 39.0625H40.625C41.0394 39.0625 41.4368 38.8979 41.7299 38.6049C42.0229 38.3118 42.1875 37.9144 42.1875 37.5V15.625Z" fill="#FAFAFA"/>
</svg>
