<svg width="30" height="30" viewBox="0 0 30 30" fill="none" xmlns="http://www.w3.org/2000/svg">
<path d="M25.7004 12.7359L16.3254 3.36094C15.9738 3.00957 15.4971 2.81219 15 2.81219C14.5029 2.81219 14.0262 3.00957 13.6746 3.36094L4.29962 12.7359C4.12467 12.9096 3.98598 13.1163 3.89163 13.344C3.79727 13.5718 3.74913 13.816 3.75001 14.0625V25.3125C3.75001 25.5611 3.84878 25.7996 4.0246 25.9754C4.20041 26.1512 4.43887 26.25 4.68751 26.25H12.1875C12.4362 26.25 12.6746 26.1512 12.8504 25.9754C13.0262 25.7996 13.125 25.5611 13.125 25.3125V18.75H16.875V25.3125C16.875 25.5611 16.9738 25.7996 17.1496 25.9754C17.3254 26.1512 17.5639 26.25 17.8125 26.25H25.3125C25.5612 26.25 25.7996 26.1512 25.9754 25.9754C26.1512 25.7996 26.25 25.5611 26.25 25.3125V14.0625C26.2509 13.816 26.2028 13.5718 26.1084 13.344C26.014 13.1163 25.8754 12.9096 25.7004 12.7359ZM24.375 24.375H18.75V17.8125C18.75 17.5639 18.6512 17.3254 18.4754 17.1496C18.2996 16.9738 18.0612 16.875 17.8125 16.875H12.1875C11.9389 16.875 11.7004 16.9738 11.5246 17.1496C11.3488 17.3254 11.25 17.5639 11.25 17.8125V24.375H5.62501V14.0625L15 4.6875L24.375 14.0625V24.375Z" fill="#FFB9B9"/>
</svg>
