<svg width="30" height="30" viewBox="0 0 30 30" fill="none" xmlns="http://www.w3.org/2000/svg">
<path d="M23.4375 16.875H14.4492L14.7246 16.5996L17.0754 14.2488C18.0249 14.727 19.071 14.9819 20.134 14.9941C21.204 14.997 22.2539 14.7042 23.168 14.148C25.9477 12.4652 27.4371 8.56992 27.1524 3.72774C27.139 3.49838 27.0418 3.28193 26.8794 3.11948C26.7169 2.95703 26.5005 2.85988 26.2711 2.84649C21.4289 2.56289 17.5336 4.05118 15.8508 6.83086C14.7539 8.64141 14.7258 10.8281 15.7488 12.9246L14.0625 14.6109L12.6317 13.1801C13.3348 11.6273 13.2844 10.016 12.4688 8.67071C11.1949 6.5625 8.27463 5.43868 4.65587 5.65078C4.42692 5.66443 4.21091 5.76153 4.04872 5.92371C3.88654 6.0859 3.78944 6.30191 3.7758 6.53086C3.56252 10.1484 4.68752 13.0688 6.79689 14.3438C7.50259 14.7746 8.31379 15.0018 9.14064 15C9.89077 14.9926 10.6307 14.8252 11.311 14.509L12.736 15.9375L11.7985 16.875H6.56252C6.31388 16.875 6.07542 16.9738 5.8996 17.1496C5.72379 17.3254 5.62502 17.5639 5.62502 17.8125C5.62502 18.0611 5.72379 18.2996 5.8996 18.4754C6.07542 18.6512 6.31388 18.75 6.56252 18.75H7.68634L9.23439 25.7191C9.32513 26.1365 9.55645 26.5101 9.88964 26.7774C10.2228 27.0447 10.6377 27.1895 11.0649 27.1875H18.9363C19.3635 27.1895 19.7784 27.0447 20.1116 26.7774C20.4448 26.5101 20.6761 26.1365 20.7668 25.7191L22.3149 18.75H23.4375C23.6862 18.75 23.9246 18.6512 24.1004 18.4754C24.2762 18.2996 24.375 18.0611 24.375 17.8125C24.375 17.5639 24.2762 17.3254 24.1004 17.1496C23.9246 16.9738 23.6862 16.875 23.4375 16.875ZM17.461 7.80235C18.6867 5.77969 21.5906 4.63828 25.3125 4.68867C25.3606 8.41641 24.2215 11.3191 22.1988 12.5402C20.85 13.3605 19.2223 13.3066 17.5957 12.402C16.6899 10.7813 16.6406 9.15118 17.461 7.80235ZM10.7942 12.6691C9.71603 13.2469 8.64845 13.2738 7.7672 12.7395C6.41955 11.9227 5.64259 9.99727 5.62502 7.5C8.12228 7.51758 10.0488 8.29453 10.8645 9.64219C11.3988 10.5234 11.3672 11.591 10.7942 12.6691ZM18.9363 25.3125H11.0649L9.60939 18.75H20.3906L18.9363 25.3125Z" fill="#FAFAFA"/>
</svg>
