<svg width="24" height="24" viewBox="0 0 24 24" fill="none" xmlns="http://www.w3.org/2000/svg">
<path d="M20.4 18.34V3.94001C20.4 3.65358 20.2863 3.37888 20.0837 3.17634C19.8812 2.9738 19.6065 2.86001 19.32 2.86001H17.16V2.50001C17.16 2.21358 17.0463 1.93888 16.8437 1.73634C16.6412 1.5338 16.3665 1.42001 16.08 1.42001C15.7936 1.42001 15.5189 1.5338 15.3164 1.73634C15.1138 1.93888 15 2.21358 15 2.50001V2.86001H13.2V2.50001C13.2 2.21358 13.0863 1.93888 12.8837 1.73634C12.6812 1.5338 12.4065 1.42001 12.12 1.42001C11.8336 1.42001 11.5589 1.5338 11.3564 1.73634C11.1538 1.93888 11.04 2.21358 11.04 2.50001V2.86001H9.24005V2.50001C9.24005 2.21358 9.12626 1.93888 8.92372 1.73634C8.72118 1.5338 8.44648 1.42001 8.16005 1.42001C7.87361 1.42001 7.59891 1.5338 7.39637 1.73634C7.19383 1.93888 7.08005 2.21358 7.08005 2.50001V2.86001H4.92005C4.63361 2.86001 4.35891 2.9738 4.15637 3.17634C3.95383 3.37888 3.84005 3.65358 3.84005 3.94001V18.34C3.84005 19.1993 4.1814 20.0234 4.78902 20.631C5.39664 21.2387 6.22075 21.58 7.08005 21.58H17.16C18.0193 21.58 18.8435 21.2387 19.4511 20.631C20.0587 20.0234 20.4 19.1993 20.4 18.34ZM17.16 5.02001H18.24V18.34C18.24 18.6264 18.1263 18.9012 17.9237 19.1037C17.7212 19.3062 17.4465 19.42 17.16 19.42H7.08005C6.79361 19.42 6.51891 19.3062 6.31637 19.1037C6.11383 18.9012 6.00005 18.6264 6.00005 18.34V5.02001H7.08005V5.38001C7.08005 5.66645 7.19383 5.94115 7.39637 6.14369C7.59891 6.34623 7.87361 6.46001 8.16005 6.46001C8.44648 6.46001 8.72118 6.34623 8.92372 6.14369C9.12626 5.94115 9.24005 5.66645 9.24005 5.38001V5.02001H11.04V5.38001C11.04 5.66645 11.1538 5.94115 11.3564 6.14369C11.5589 6.34623 11.8336 6.46001 12.12 6.46001C12.4065 6.46001 12.6812 6.34623 12.8837 6.14369C13.0863 5.94115 13.2 5.66645 13.2 5.38001V5.02001H15V5.38001C15 5.66645 15.1138 5.94115 15.3164 6.14369C15.5189 6.34623 15.7936 6.46001 16.08 6.46001C16.3665 6.46001 16.6412 6.34623 16.8437 6.14369C17.0463 5.94115 17.16 5.66645 17.16 5.38001V5.02001Z" fill="#FAFAFA"/>
<mask id="path-2-outside-1_585_1373" maskUnits="userSpaceOnUse" x="6.92163" y="8.625" width="10" height="8" fill="black">
<rect fill="white" x="6.92163" y="8.625" width="10" height="8"/>
<path d="M15.6589 9.625C15.7846 9.62505 15.905 9.67494 15.9939 9.76367C16.0829 9.85264 16.1335 9.97379 16.1335 10.0996C16.1335 10.2254 16.0828 10.3456 15.9939 10.4346V10.4336L10.9412 15.4854C10.8972 15.5295 10.8453 15.565 10.7878 15.5889C10.7303 15.6127 10.6685 15.625 10.6062 15.625C10.5439 15.625 10.4821 15.6127 10.4246 15.5889C10.367 15.565 10.3143 15.5295 10.2703 15.4854L8.0603 13.2754C8.0164 13.2315 7.98159 13.1794 7.95776 13.1221C7.93396 13.0646 7.92167 13.0026 7.92163 12.9404C7.92163 12.8781 7.93393 12.8163 7.95776 12.7588C7.98161 12.7012 8.01625 12.6485 8.0603 12.6045C8.10433 12.5605 8.15709 12.5258 8.2146 12.502C8.27192 12.4783 8.33324 12.4659 8.39526 12.4658C8.45746 12.4658 8.51943 12.4782 8.5769 12.502C8.63442 12.5258 8.68717 12.5605 8.7312 12.6045L10.6062 14.4795L15.323 9.76367C15.412 9.67471 15.5331 9.625 15.6589 9.625Z"/>
</mask>
<path d="M15.6589 9.625C15.7846 9.62505 15.905 9.67494 15.9939 9.76367C16.0829 9.85264 16.1335 9.97379 16.1335 10.0996C16.1335 10.2254 16.0828 10.3456 15.9939 10.4346V10.4336L10.9412 15.4854C10.8972 15.5295 10.8453 15.565 10.7878 15.5889C10.7303 15.6127 10.6685 15.625 10.6062 15.625C10.5439 15.625 10.4821 15.6127 10.4246 15.5889C10.367 15.565 10.3143 15.5295 10.2703 15.4854L8.0603 13.2754C8.0164 13.2315 7.98159 13.1794 7.95776 13.1221C7.93396 13.0646 7.92167 13.0026 7.92163 12.9404C7.92163 12.8781 7.93393 12.8163 7.95776 12.7588C7.98161 12.7012 8.01625 12.6485 8.0603 12.6045C8.10433 12.5605 8.15709 12.5258 8.2146 12.502C8.27192 12.4783 8.33324 12.4659 8.39526 12.4658C8.45746 12.4658 8.51943 12.4782 8.5769 12.502C8.63442 12.5258 8.68717 12.5605 8.7312 12.6045L10.6062 14.4795L15.323 9.76367C15.412 9.67471 15.5331 9.625 15.6589 9.625Z" fill="#FAFAFA"/>
<path d="M15.6589 9.625L15.6592 9.125H15.6589V9.625ZM15.9939 9.76367L16.3474 9.41011L16.3471 9.40979L15.9939 9.76367ZM16.1335 10.0996L16.6335 10.0998V10.0996H16.1335ZM15.9939 10.4346H15.4939V11.6416L16.3474 10.7881L15.9939 10.4346ZM15.9939 10.4336H16.4939V9.22665L15.6404 10.08L15.9939 10.4336ZM10.9412 15.4854L10.5876 15.1318L10.587 15.1324L10.9412 15.4854ZM10.7878 15.5889L10.9796 16.0506L10.9797 16.0506L10.7878 15.5889ZM10.6062 15.625L10.6062 16.125L10.6064 16.125L10.6062 15.625ZM10.4246 15.5889L10.2328 16.0506L10.2331 16.0507L10.4246 15.5889ZM10.2703 15.4854L10.6244 15.1324L10.6238 15.1318L10.2703 15.4854ZM8.0603 13.2754L7.70668 13.6289L7.70675 13.6289L8.0603 13.2754ZM7.95776 13.1221L7.49583 13.3134L7.49603 13.3139L7.95776 13.1221ZM7.92163 12.9404L7.42163 12.9404L7.42163 12.9407L7.92163 12.9404ZM7.95776 12.7588L7.49583 12.5674L7.49581 12.5675L7.95776 12.7588ZM8.0603 12.6045L7.70689 12.2508L7.70676 12.2509L8.0603 12.6045ZM8.2146 12.502L8.02361 12.0399L8.02327 12.04L8.2146 12.502ZM8.39526 12.4658L8.39526 11.9658L8.39477 11.9658L8.39526 12.4658ZM8.5769 12.502L8.76823 12.04L8.76792 12.0399L8.5769 12.502ZM8.7312 12.6045L9.08475 12.2509L9.08463 12.2508L8.7312 12.6045ZM10.6062 14.4795L10.2526 14.833L10.6062 15.1866L10.9597 14.8331L10.6062 14.4795ZM15.323 9.76367L15.6765 10.1173L15.6765 10.1173L15.323 9.76367ZM15.6589 9.625L15.6587 10.125C15.6519 10.125 15.6454 10.1223 15.6407 10.1176L15.9939 9.76367L16.3471 9.40979C16.1646 9.22759 15.9172 9.12511 15.6592 9.125L15.6589 9.625ZM15.9939 9.76367L15.6404 10.1172C15.6365 10.1134 15.6335 10.1077 15.6335 10.0996H16.1335H16.6335C16.6335 9.83986 16.5293 9.59191 16.3474 9.41011L15.9939 9.76367ZM16.1335 10.0996L15.6335 10.0994C15.6335 10.0904 15.6371 10.0842 15.6404 10.081L15.9939 10.4346L16.3474 10.7881C16.5285 10.6071 16.6334 10.3603 16.6335 10.0998L16.1335 10.0996ZM15.9939 10.4346H16.4939V10.4336H15.9939H15.4939V10.4346H15.9939ZM15.9939 10.4336L15.6404 10.08L10.5876 15.1318L10.9412 15.4854L11.2947 15.8389L16.3474 10.7872L15.9939 10.4336ZM10.9412 15.4854L10.587 15.1324C10.587 15.1324 10.5896 15.1298 10.5959 15.1272L10.7878 15.5889L10.9797 16.0506C11.1011 16.0002 11.2074 15.9265 11.2953 15.8383L10.9412 15.4854ZM10.7878 15.5889L10.5961 15.1271C10.5999 15.1255 10.6032 15.125 10.606 15.125L10.6062 15.625L10.6064 16.125C10.7338 16.1249 10.8608 16.1 10.9796 16.0506L10.7878 15.5889ZM10.6062 15.625V15.125C10.6095 15.125 10.6127 15.1256 10.6161 15.127L10.4246 15.5889L10.2331 16.0507C10.3514 16.0998 10.4784 16.125 10.6062 16.125V15.625ZM10.4246 15.5889L10.6163 15.1271C10.6201 15.1287 10.6224 15.1304 10.6244 15.1324L10.2703 15.4854L9.91611 15.8383C10.0061 15.9286 10.1139 16.0013 10.2328 16.0506L10.4246 15.5889ZM10.2703 15.4854L10.6238 15.1318L8.41386 12.9218L8.0603 13.2754L7.70675 13.6289L9.91671 15.8389L10.2703 15.4854ZM8.0603 13.2754L8.41392 12.9219C8.4163 12.9243 8.41822 12.9272 8.4195 12.9302L7.95776 13.1221L7.49603 13.3139C7.54496 13.4317 7.6165 13.5387 7.70668 13.6289L8.0603 13.2754ZM7.95776 13.1221L8.4197 12.9307C8.4211 12.9341 8.42163 12.9371 8.42163 12.9401L7.92163 12.9404L7.42163 12.9407C7.42171 13.0682 7.44681 13.1951 7.49583 13.3134L7.95776 13.1221ZM7.92163 12.9404L8.42163 12.9404C8.42163 12.9438 8.42099 12.947 8.41972 12.9501L7.95776 12.7588L7.49581 12.5675C7.44688 12.6856 7.42163 12.8124 7.42163 12.9404L7.92163 12.9404ZM7.95776 12.7588L8.4197 12.9501C8.41941 12.9508 8.41802 12.9539 8.41384 12.9581L8.0603 12.6045L7.70676 12.2509C7.61447 12.3432 7.54381 12.4516 7.49583 12.5674L7.95776 12.7588ZM8.0603 12.6045L8.41372 12.9582C8.40971 12.9622 8.40686 12.9635 8.40593 12.9639L8.2146 12.502L8.02327 12.04C7.90732 12.088 7.79896 12.1588 7.70689 12.2508L8.0603 12.6045ZM8.2146 12.502L8.40558 12.964C8.40338 12.965 8.40004 12.9658 8.39576 12.9658L8.39526 12.4658L8.39477 11.9658C8.26643 11.9659 8.14046 11.9916 8.02361 12.0399L8.2146 12.502ZM8.39526 12.4658L8.39526 12.9658C8.39155 12.9658 8.38864 12.9652 8.38589 12.964L8.5769 12.502L8.76792 12.0399C8.65021 11.9912 8.52337 11.9658 8.39526 11.9658L8.39526 12.4658ZM8.5769 12.502L8.38557 12.9639C8.38467 12.9635 8.38179 12.9622 8.37777 12.9582L8.7312 12.6045L9.08463 12.2508C8.99254 12.1588 8.88417 12.088 8.76823 12.04L8.5769 12.502ZM8.7312 12.6045L8.37765 12.958L10.2526 14.833L10.6062 14.4795L10.9598 14.1259L9.08475 12.2509L8.7312 12.6045ZM10.6062 14.4795L10.9597 14.8331L15.6765 10.1173L15.323 9.76367L14.9695 9.41008L10.2527 14.1259L10.6062 14.4795ZM15.323 9.76367L15.6765 10.1173C15.6709 10.1229 15.6645 10.125 15.6589 10.125V9.625V9.125C15.4018 9.125 15.1531 9.2265 14.9695 9.41009L15.323 9.76367Z" fill="#FAFAFA" mask="url(#path-2-outside-1_585_1373)"/>
</svg>
